<svg height="479pt" viewBox="0 0 479.98335 479" width="479pt" xmlns="http://www.w3.org/2000/svg"><path d="m471.957031 232.359375c0-53.019531-42.980469-96-96-96-.960937 0-1.839843 0-2.800781.078125 12.933594-54.664062-19.878906-109.71875-74.113281-124.351562-54.230469-14.636719-110.285157 16.441406-126.605469 70.191406-18.496094-17.8125-45.839844-22.859375-69.472656-12.820313-23.632813 10.039063-38.988282 33.222657-39.007813 58.902344-.023437 9.613281 2.136719 19.105469 6.320313 27.757813-35.855469 10.929687-60.851563 43.375-62.277344 80.832031s21.035156 71.707031 55.957031 85.328125v-89.917969h80v24h32c39.765625 0 72-32.238281 72-72v-32h16c17.671875 0 32 14.324219 32 32v64c0 4.417969 3.582031 8 8 8h78.640625c12.921875-.277344 23.90625 9.386719 25.28125 22.238281.488282 6.652344-1.8125 13.207032-6.351562 18.089844-4.535156 4.886719-10.902344 7.667969-17.570313 7.671875h6.640625c10.453125-.074219 19.890625 6.25 23.800782 15.941406 34.964843-15.261719 57.5625-49.789062 57.558593-87.941406zm0 0" fill="#57a4ff"/><path d="m63.957031 232.359375v240h80v-240zm40 216c-8.835937 0-16-7.164063-16-16s7.164063-16 16-16c8.835938 0 16 7.164063 16 16s-7.164062 16-16 16zm0 0" fill="#57a4ff"/><g fill="#1e81ce"><path d="m382.789062 128.582031c.777344-5.371093 1.167969-10.792969 1.167969-16.222656-.0625-53.273437-37.644531-99.128906-89.867187-109.660156-52.222656-10.527344-104.632813 17.1875-125.332032 66.273437-25.5625-17.484375-59.4375-16.679687-84.140624 1.992188-24.707032 18.675781-34.71875 51.046875-24.867188 80.410156-30.234375 12.351562-52.121094 39.210938-58.117188 71.316406-5.996093 32.101563 4.722657 65.050782 28.460938 87.484375 3.214844 3.03125 8.277344 2.886719 11.3125-.328125 3.03125-3.214844 2.886719-8.28125-.328125-11.3125-20.726563-19.585937-29.472656-48.710937-22.96875-76.476562 6.507813-27.761719 27.285156-49.96875 54.550781-58.308594 2.234375-.683594 4.058594-2.3125 4.988282-4.457031.933593-2.140625.882812-4.585938-.140626-6.6875-3.671874-7.554688-5.570312-15.847657-5.550781-24.246094.015625-22.472656 13.453125-42.761719 34.140625-51.546875 20.6875-8.78125 44.617188-4.355469 60.796875 11.242188 2.011719 1.933593 4.882813 2.675781 7.578125 1.96875 2.699219-.710938 4.832032-2.777344 5.628906-5.449219 15.03125-49.664063 66.804688-78.394531 116.902344-64.871094 50.09375 13.523437 80.378906 64.40625 68.378906 114.886719-.59375 2.496094.046876 5.121094 1.71875 7.066406 1.65625 1.953125 4.160157 2.980469 6.710938 2.75.730469-.046875 1.382812-.046875 2.144531-.046875 36.601563-.003906 69.386719 22.648437 82.328125 56.886719 12.941406 34.238281 3.335938 72.914062-24.121094 97.121094-3.3125 2.925781-3.625 7.984374-.699218 11.300781 2.925781 3.3125 7.988281 3.625 11.300781.699219 31.511719-27.785157 43.210937-71.800782 29.652344-111.566407-13.554688-39.765625-49.707031-67.46875-91.628907-70.21875zm0 0"/><path d="m423.859375 326.046875c-.804687-10.359375-6.648437-19.664063-15.628906-24.886719 5.507812-6.402344 8.253906-14.722656 7.628906-23.144531-1.636719-17.058594-16.128906-29.976563-33.261719-29.65625h-78.640625v-64c-.027343-22.082031-17.917969-39.972656-40-40h-16c-4.417969 0-8 3.582031-8 8v32c-.039062 35.328125-28.671875 63.960937-64 64h-24v-16c0-4.417969-3.582031-8-8-8h-80c-4.417969 0-8 3.582031-8 8v240c0 4.417969 3.582031 8 8 8h80c4.417969 0 8-3.582031 8-8v-16h216c11.808594-.007813 22.652344-6.511719 28.214844-16.929687 5.5625-10.417969 4.933594-23.046876-1.628906-32.863282 9.917969-3.476562 17.496093-11.605468 20.273437-21.742187 2.777344-10.140625.398438-20.996094-6.363281-29.042969 10.304687-6.238281 16.253906-17.71875 15.40625-29.734375zm-287.902344 138.3125h-64v-224h64zm267.304688-124.695313c-2.992188 3.011719-7.0625 4.703126-11.304688 4.695313h-40c-4.417969 0-8 3.582031-8 8s3.582031 8 8 8h32c8.835938 0 16 7.164063 16 16s-7.164062 16-16 16h-32c-4.417969 0-8 3.582031-8 8s3.582031 8 8 8h16c8.835938 0 16 7.164063 16 16s-7.164062 16-16 16h-216v-176h24c44.164063-.050781 79.953125-35.839844 80-80v-24h8c13.253907 0 24 10.746094 24 24v64c0 8.835937 7.164063 16 16 16h78.640625c8.722656-.234375 16.203125 6.179687 17.304688 14.839844.371094 4.636719-1.328125 9.199219-4.640625 12.464843-2.992188 3.011719-7.0625 4.703126-11.304688 4.695313h-32c-4.417969 0-8 3.582031-8 8s3.582031 8 8 8h38.640625c8.722656-.234375 16.203125 6.179687 17.304688 14.839844.371094 4.636719-1.328125 9.199219-4.640625 12.464843zm0 0"/><path d="m103.957031 408.359375c-13.253906 0-24 10.746094-24 24s10.746094 24 24 24c13.253907 0 24-10.746094 24-24s-10.746093-24-24-24zm0 32c-4.417969 0-8-3.582031-8-8s3.582031-8 8-8 8 3.582031 8 8-3.582031 8-8 8zm0 0"/></g></svg>